# xmcd
#
# Track frame offsets: 
#        150
#        12035
#        23871
#        35589
#        50124
#        63614
#        76247
#        88535
#        100991
#        112337
#        123647
#        136474
#        151835
#        165371
#        176900
#        186221
#        201463
#        213064
#        225416
#        236851
#        250037
#        269135
#        282565
#        293882
#        310229
#        323357
#        333293
#
# Disc length: 4620 seconds
#
# Revision: 0
# Processed by: cddbd v1.5.2PL0 Copyright (c) Steve Scherf et al.
# Submitted via: ExactAudioCopy v0.99pb4
#
DISCID=8d120a1b
DTITLE=Various Artist - There's A Dream I've Been Saving  [CD4]
DYEAR=1900
DGENRE=Country | Pop
TTITLE0=Sanford Clark - The Black Widow Spider
TTITLE1=A Handful - Dying Daffodil Incident
TTITLE2=Virgil Warner and Suzi Jane Hokom - Lady Bird
TTITLE3=Virgil Warner and Suzi Jane Hokom - Summer Wine
TTITLE4=Ray Chafin - Emmy
TTITLE5=The International Submarine Band - Luxury Liner
TTITLE6=The Shacklefords - California Sunshine Girl
TTITLE7=The Shacklefords - It's My Time
TTITLE8=Danny Michaels - Hands
TTITLE9=Suzi Jane Hokom - Same Old Songs
TTITLE10=Suzi Jane Hokom - Reason To Believe
TTITLE11=Virgil Warner - The Man I Was Yesterday
TTITLE12=Eve - Dusty Roads
TTITLE13=Eve - Hello L.A., Bye Bye Birmingham
TTITLE14=Joe Cannon - Warm Miami Sunshine
TTITLE15=Joe Cannon - Lonesome Wheels
TTITLE16=Joe Cannon - Cold Hard Times
TTITLE17=Rabbitt - Peppermint Morning
TTITLE18=Phoenix 70 - Goin' On
TTITLE19=Billie Dearborn - Friday's Child
TTITLE20=Jon Christian - I Feel Love Coming On
TTITLE21=Barbara Randolph - Ten Or Eleven Towns Ago
TTITLE22=Barbara Randolph - Miracle On 19th Street
TTITLE23=Barbara Randolph - Cheap Lovin'
TTITLE24=Don Randi - Chain Of Fools
TTITLE25=The Woodchucks - Angry Generation
TTITLE26=Larry Marks - The Start
EXTD=
EXTT0=
EXTT1=
EXTT2=
EXTT3=
EXTT4=
EXTT5=
EXTT6=
EXTT7=
EXTT8=
EXTT9=
EXTT10=
EXTT11=
EXTT12=
EXTT13=
EXTT14=
EXTT15=
EXTT16=
EXTT17=
EXTT18=
EXTT19=
EXTT20=
EXTT21=
EXTT22=
EXTT23=
EXTT24=
EXTT25=
EXTT26=
PLAYORDER=
